<svg xmlns="http://www.w3.org/2000/svg" viewBox="0 0 690.35 286"><defs><style>.cls-1{fill:#040000;}.cls-2{fill:#e60012;}.cls-3{fill:#231815;}</style></defs><path class="cls-1" d="M331.06,196.72q0,43.41-60,74.48-40,21-95.3,31.82l-17.88,51H104.39l53.52-150.43H211l-25.22,70.53q28.45-6.45,50.44-20.09,30.65-19.2,31.81-44.72.74-16.41-11-21.55-7-3.08-25.37-3.08H81.82l22.87-36.94h151q33.14,0,50.58,8.21Q331.06,167.55,331.06,196.72Z" transform="translate(-81.82 -146.66)"/><path class="cls-1" d="M432.91,329.48a30.22,30.22,0,0,1-15.83,19.06,40.87,40.87,0,0,1-18.77,4.4H340.4q-21,0-21-17.59a32,32,0,0,1,2.05-10.71L347,253.24h53.23l-27.13,76.24Z" transform="translate(-81.82 -146.66)"/><path class="cls-2" d="M422.35,193.13q0,14.67-11.36,24.93a39.37,39.37,0,0,1-27.34,10.26q-16.27,0-27.64-10.26t-11.36-24.93q0-14.5,11.36-24.78t27.64-10.26A39.37,39.37,0,0,1,411,168.35Q422.36,178.63,422.35,193.13Z" transform="translate(-81.82 -146.66)"/><path class="cls-1" d="M772.17,329.48q-6.15,23.46-40.76,23.46H678.78q-24.63,0-24.63-14.22,0-5,3.08-13.05l24.33-63.34-72.72,79.76q-11.73,13.05-25.65,13.05a38,38,0,0,1-5.57-.44Q560.9,352.8,560.9,338a33.28,33.28,0,0,1,2.64-12.31l36.07-93.1L509.15,341.8q-9.09,11.15-26.69,11.14H452.7L511.93,183.6H430.56l22.14-36.94h97.94q20.24,0,20.23,14.8a43.56,43.56,0,0,1-2.78,13.78l-31.52,90.9,63-71.4q12-13.77,18.47-17.88,10.7-6.75,27.71-6.75a18.88,18.88,0,0,1,10.12,3.38q8.05,5.26,8.06,15.68a39.68,39.68,0,0,1-3.23,14.52L632.3,277.58l56.45-56.74q12-12,16-14.51,6.88-4,19.79-3.82,5.13,0,10.85,3.82,8.8,5.71,8.8,16.71A39.26,39.26,0,0,1,741.24,237l-35,92.51Z" transform="translate(-81.82 -146.66)"/><path class="cls-3" d="M89.05,416.66l9.71-.26.52.26-.79,6.55,4.2-.26.26-8.13-10,1.05,1.83-23.34,2.1-18.62,16.26-1.05,1.84-3.93.52-.53,11.8.53L126,372.86a56.82,56.82,0,0,1,7.61,0,11.52,11.52,0,0,1,5.77,1.57q3.93,2.9,4.46,10.23l.78,10.49-.26.26h-8.65l-29.12,1.84-.26,1.57,28.85-1.05,16.79-.26v6.3l-28.59.78-17.57,1.84V407l17.83-.78h15.74q6.81,0,9.18,2.62a10.21,10.21,0,0,1,2.62,6,39.78,39.78,0,0,1,.26,5.51q0,6.56-1.31,8.65a13.59,13.59,0,0,1-9.18,3.41h-7.34l-2.89-9.7.53-.26,7.87.26-.27-9.44-25.17.79-.27,8.65,3.94-.26-.27-7.35h10.23l.79,14.95-39.6,2.63-.26-2.37Zm18.1-26,24.39-1.05v-2.09l-24.13,1.05ZM131,381l-.26-2.1-22.29,1.05-.26,2.62Z" transform="translate(-81.82 -146.66)"/><path class="cls-3" d="M166.16,383.61l.78-14.95,9.71.53-.79,13.9,5.25-.53v8.92l-5,.26,6.3,7.87L179.27,408l-3.93-3.67v27.8l-11,.26.79-23.6-6.3,9.7-3.14-10,9.18-15.48-9.44,1.05v-9.44Zm50.09,15.74-2.1.26,5.51,7.61-6.82,8.13,6.56,8.39-6.56,8.13-7.34-9.7-3.94,3.67c-1.75,1.74-3.14,3.05-4.19,3.93a10.3,10.3,0,0,1-4.2,2.36,8.4,8.4,0,0,1-4.2,0,5.16,5.16,0,0,1-3.14-1.31,7.52,7.52,0,0,1-1.84-3.93,32,32,0,0,1-.26-4.72V393.58l.52-23.61,21.25-1q9.69-.53,10,7.34ZM206,381l-.26-4.2-11.8.53v4.46ZM194,393.32,206.28,392v-3.67l-12.32.79Zm5,21.24-5-5.77.26,9.7Zm7.34-7.34,7.09-7.61-12.59,1.31Z" transform="translate(-81.82 -146.66)"/><path class="cls-3" d="M222.54,384.92l24.39-.78,8.66-16L266.34,371l-6.29,13.12,26-.26v8.65l-30.42,1.05L254,397l30.16,23.34,2.09,1.31-8.13,10L249,408.26l-10.75,24.4H238L226,426.89l-.26-.27,15.74-31.73q-5.51.27-9.71.79-2.1.26-8.65,1.31Z" transform="translate(-81.82 -146.66)"/><path class="cls-3" d="M291.78,384.14l28.85-2.63h6.29l7.61-12.58,11,2.36-6.56,10a37.79,37.79,0,0,1,6.29,0,10.82,10.82,0,0,1,6.56,2.89,8.07,8.07,0,0,1,1.84,5.5,49.48,49.48,0,0,1-.53,6l-11.28.26v-7.08l-30.42,1.57-10,1.05-.27,6L290,398Zm-1.31,23.08,26.75-1.05,4.2-5.25-16,1.58.26-8.66L329,391.48l3.94.79a4.7,4.7,0,0,1,3.14,2.62q1,2.1-1.83,5.77l-4.2,5.24h23.08l-.26,8.4H329.55l.78,12.06q.27,3.4-5,5.25a29.75,29.75,0,0,1-3.67.52,81.68,81.68,0,0,1-10.75-.26l-2.1-9.18h9.44l-.52-7.87-27.28,1.84ZM297,373.91a4.92,4.92,0,0,1,3.14-3.94,6.79,6.79,0,0,1,5.51.27,6.37,6.37,0,0,1,1.05,11,4.59,4.59,0,0,1-4.2,1.05,6,6,0,0,1-4.19-2.88A7,7,0,0,1,297,373.91Zm16.78,1q-.26-4.2,2.89-5.77a6.25,6.25,0,0,1,6.29.26,6.34,6.34,0,0,1,3.41,4.72,5.43,5.43,0,0,1-1.57,5.25c-1.93,1.75-3.94,2.18-6,1.31Q314.33,379.16,313.81,375Z" transform="translate(-81.82 -146.66)"/><path class="cls-3" d="M416.09,393.58l1.58-5.51-16,2.1V378.63l19.67-1.31,2.88-7.08,11,2.62-2.36,4.72,16.78.52v8.4l-19.93.52-1.83,6h21.5l.53,8.92-23.61.26a26,26,0,0,0-1.57,8.66q0,8.91,7.87,8.91a13.5,13.5,0,0,0,10-3.93q3.68-3.67,5.25-10.75l11.54,4.19q-3.42,8.93-6.82,12.86-7.08,8.11-19.93,8.39-12.08.26-17.05-5.77a16.75,16.75,0,0,1-3.41-8.92c-.18-2.79.35-6.82,1.57-12.06l-12.32,2.09.52-11Z" transform="translate(-81.82 -146.66)"/><path class="cls-3" d="M497.92,421.12q6.56-4.46,8.65-8.4a22.19,22.19,0,0,0,2.89-11.8q0-7.34-3.15-11.54a16.06,16.06,0,0,0-7.87-5.77,18.47,18.47,0,0,0-10.22-.26,20.34,20.34,0,0,0-12.33,9.44,19.5,19.5,0,0,0-2.89,11.8,11.2,11.2,0,0,0,1.32,4.46q1.57,2.63,3.67,1.84a16.92,16.92,0,0,0,5.24-3.41,50.35,50.35,0,0,0,3.94-3.41,116.32,116.32,0,0,0,10.23-11.28l7.6,6.82a123.89,123.89,0,0,1-10.75,12.85,52,52,0,0,1-13.38,10,12.43,12.43,0,0,1-8.13,1.31,9.61,9.61,0,0,1-6.82-4.72q-2.88-4.45-3.14-12.33a36.39,36.39,0,0,1,1.57-12.59,28.54,28.54,0,0,1,10.23-15,30,30,0,0,1,18.36-6.29q12.58,0,20.45,8.92a26.41,26.41,0,0,1,6,12.32,35.47,35.47,0,0,1,.26,14.16,39.7,39.7,0,0,1-3.41,10Q513.93,423,507.62,429Z" transform="translate(-81.82 -146.66)"/><path class="cls-3" d="M568.47,377.84l2.62,6.56,4.46-1a36.57,36.57,0,0,1,3.67,5.51q5.25,11.28-1.31,21.24a34.36,34.36,0,0,1-9.18,8.92,105.55,105.55,0,0,1-16.52,9.18l-6-11q4.71-2.1,8.39-3.93a28.15,28.15,0,0,0,8.39-5.51q5.76-5,6.3-10.23a8.31,8.31,0,0,0-3.15-7.87q-3.15-2.36-8.66-1.83a56.66,56.66,0,0,0-13.9,3.67q-5,2.1-13.37,6.29l-6.82-10q9.18-4.72,13.11-6.3a72.71,72.71,0,0,1,19.15-5A39.54,39.54,0,0,1,568.47,377.84Zm5-7.08L577.91,382l-6.56,1.31-4.19-10.49Zm6.82-2.1,4.2,11.54-5.25,1.31-4.72-11Z" transform="translate(-81.82 -146.66)"/><path class="cls-3" d="M637.18,377.58l-37.5,22.29L638,423.21l-8.92,7.08-30.42-18.62q-3.15-1.83-6.56-4.19c-2.62-1.75-4.28-3.58-5-5.51q-1.58-3.93,2.36-8.13a28.44,28.44,0,0,1,7.34-5.24l32-18.63Z" transform="translate(-81.82 -146.66)"/><path class="cls-3" d="M656.06,374.43q-2.1,10.23-2.62,13.38a129.25,129.25,0,0,0-1.05,14.69L660,397l4.72,10.49L654,414.82q-6.3,4.2-10,1.31-1.85-1.58-2.62-5.77a55.29,55.29,0,0,1-.53-8.65q.27-10,4.46-28.85Zm17.05-2.36,11.54-1.31q1.58,16.53,1.57,24.13,0,12.33-3.14,34.88l-11.8-1q2.61-16.26,3.4-28.32Q675.48,388.6,673.11,372.07Z" transform="translate(-81.82 -146.66)"/><path class="cls-3" d="M688.85,392.79l5.5-.26.27-10.23-5.25.79-.26-.26.52-9.18,11.81-.27.26-4.72,10.49-.26-.26,4.46,12.32-.26-.52,7.86h-3.41L718,391.74h5.24v7.61h-11l-23.34,2.1Zm3.93,10.75,21.24-.78a6,6,0,0,1,6.3,3.93c.7,1.23,1,3.32,1,6.3q.25,6.28,0,13.9L691,431.34Zm18.62,16.79v-8.39h-8.65l-1,8.91Zm-2.88-28.59L709,381l-3.67.26-1,10.49Zm38.55,4.2,1.57,4.46,3.15,11a31.66,31.66,0,0,1,1.05,4.46,8.84,8.84,0,0,1-.52,4.2Q751,423,747.07,424a33.42,33.42,0,0,1-6.82.53l-4.46-11,5.51-.52a49.61,49.61,0,0,0-2.1-6q-1.83-4.71-3.93-8.91l6.82-19.15-6.82.53-1,23.86v28.59l-11.28.52,1-32,1.31-28.85.26-.53,22.56-1.83q4.18,2.1,4.46,5.77a23,23,0,0,1-.79,7.34Q750.47,387,747.07,395.94Z" transform="translate(-81.82 -146.66)"/></svg>