<?xml version="1.0" encoding="UTF-8" standalone="no"?>
<svg
   viewBox="0 0 900 900"
   version="1.1"
   width="900"
   height="900"
   id="svg1"
   sodipodi:docname="pimlogo-bg-round.svg"
   inkscape:version="1.3 (0e150ed6c4, 2023-07-21)"
   xmlns:inkscape="http://www.inkscape.org/namespaces/inkscape"
   xmlns:sodipodi="http://sodipodi.sourceforge.net/DTD/sodipodi-0.dtd"
   xmlns="http://www.w3.org/2000/svg"
   xmlns:svg="http://www.w3.org/2000/svg"
   xmlns:rdf="http://www.w3.org/1999/02/22-rdf-syntax-ns#"
   xmlns:cc="http://creativecommons.org/ns#"
   xmlns:dc="http://purl.org/dc/elements/1.1/">
  <sodipodi:namedview
     id="namedview1"
     pagecolor="#505050"
     bordercolor="#eeeeee"
     borderopacity="1"
     inkscape:showpageshadow="0"
     inkscape:pageopacity="0"
     inkscape:pagecheckerboard="0"
     inkscape:deskcolor="#505050"
     inkscape:zoom="0.45166667"
     inkscape:cx="423.98524"
     inkscape:cy="545.75646"
     inkscape:window-width="1920"
     inkscape:window-height="1009"
     inkscape:window-x="-8"
     inkscape:window-y="-8"
     inkscape:window-maximized="1"
     inkscape:current-layer="svg1" />
  <defs
     id="defs1" />
  <title
     id="title1">Pim Logo</title>
  <metadata
     id="metadata1">
    <rdf:RDF>
      <cc:Work
         rdf:about="">
        <dc:title>Pim Logo</dc:title>
      </cc:Work>
    </rdf:RDF>
  </metadata>
  <rect
     style="fill:#ffffff;stroke-width:5.12151"
     id="rect1"
     width="900"
     height="900"
     rx="150"
     x="0"
     y="0" />
  <g
     id="g1">
    <path
       d="m 354.065,357.05 q 0,43.41 -60,74.48 -40,21 -95.3,31.82 l -17.88,51 h -53.49 l 53.52,-150.43 h 53.09 l -25.22,70.53 q 28.45,-6.45 50.44,-20.09 30.65,-19.2 31.81,-44.72 0.74,-16.41 -11,-21.55 -7,-3.08 -25.37,-3.08 h -149.84 l 22.87,-36.94 h 151 q 33.14,0 50.58,8.21 24.79,11.6 24.79,40.77 z"
       id="path1"
       style="fill:#000000;fill-opacity:1" />
    <path
       d="m 455.915,489.81 a 30.22,30.22 0 0 1 -15.83,19.06 40.87,40.87 0 0 1 -18.77,4.4 h -57.91 q -21,0 -21,-17.59 a 32,32 0 0 1 2.05,-10.71 l 25.55,-71.4 h 53.23 l -27.13,76.24 z"
       id="path2"
       style="fill:#000000;fill-opacity:1" />
    <path
       d="m 445.355,353.46 q 0,14.67 -11.36,24.93 a 39.37,39.37 0 0 1 -27.34,10.26 q -16.27,0 -27.64,-10.26 -11.37,-10.26 -11.36,-24.93 0,-14.5 11.36,-24.78 11.36,-10.28 27.64,-10.26 a 39.37,39.37 0 0 1 27.35,10.26 q 11.36,10.28 11.35,24.78 z"
       id="path3"
       style="fill:#e60000;fill-opacity:1" />
    <path
       d="m 795.175,489.81 q -6.15,23.46 -40.76,23.46 h -52.63 q -24.63,0 -24.63,-14.22 0,-5 3.08,-13.05 l 24.33,-63.34 -72.72,79.76 q -11.73,13.05 -25.65,13.05 a 38,38 0 0 1 -5.57,-0.44 q -16.72,-1.9 -16.72,-16.7 a 33.28,33.28 0 0 1 2.64,-12.31 l 36.07,-93.1 -90.46,109.21 q -9.09,11.15 -26.69,11.14 h -29.76 l 59.23,-169.34 h -81.37 l 22.14,-36.94 h 97.94 q 20.24,0 20.23,14.8 a 43.56,43.56 0 0 1 -2.78,13.78 l -31.52,90.9 63,-71.4 q 12,-13.77 18.47,-17.88 10.7,-6.75 27.71,-6.75 a 18.88,18.88 0 0 1 10.12,3.38 q 8.05,5.26 8.06,15.68 a 39.68,39.68 0 0 1 -3.23,14.52 l -28.4,73.89 56.45,-56.74 q 12,-12 16,-14.51 6.88,-4 19.79,-3.82 5.13,0 10.85,3.82 8.8,5.71 8.8,16.71 a 39.26,39.26 0 0 1 -2.95,13.96 l -35,92.51 z"
       id="path4"
       style="fill:#000000;fill-opacity:1" />
    <path
       d="m 112.055,576.99 9.71,-0.26 0.52,0.26 -0.79,6.55 4.2,-0.26 0.26,-8.13 -10,1.05 1.83,-23.34 2.1,-18.62 16.26,-1.05 1.84,-3.93 0.52,-0.53 11.8,0.53 -1.3,3.93 a 56.82,56.82 0 0 1 7.61,0 11.52,11.52 0 0 1 5.77,1.57 q 3.93,2.9 4.46,10.23 l 0.78,10.49 -0.26,0.26 h -8.65 l -29.12,1.84 -0.26,1.57 28.85,-1.05 16.79,-0.26 v 6.3 l -28.59,0.78 -17.57,1.84 v 0.57 l 17.83,-0.78 h 15.74 q 6.81,0 9.18,2.62 a 10.21,10.21 0 0 1 2.62,6 39.78,39.78 0 0 1 0.26,5.51 q 0,6.56 -1.31,8.65 a 13.59,13.59 0 0 1 -9.18,3.41 h -7.34 l -2.89,-9.7 0.53,-0.26 7.87,0.26 -0.27,-9.44 -25.17,0.79 -0.27,8.65 3.94,-0.26 -0.27,-7.35 h 10.23 l 0.79,14.95 -39.6,2.63 -0.26,-2.37 z m 18.1,-26 24.39,-1.05 v -2.09 l -24.13,1.05 z m 23.85,-9.66 -0.26,-2.1 -22.29,1.05 -0.26,2.62 z"
       id="path5"
       style="fill:#231815;fill-opacity:1" />
    <path
       d="m 189.165,543.94 0.78,-14.95 9.71,0.53 -0.79,13.9 5.25,-0.53 v 8.92 l -5,0.26 6.3,7.87 -3.14,8.39 -3.93,-3.67 v 27.8 l -11,0.26 0.79,-23.6 -6.3,9.7 -3.14,-10 9.18,-15.48 -9.44,1.05 v -9.44 z m 50.09,15.74 -2.1,0.26 5.51,7.61 -6.82,8.13 6.56,8.39 -6.56,8.13 -7.34,-9.7 -3.94,3.67 c -1.75,1.74 -3.14,3.05 -4.19,3.93 a 10.3,10.3 0 0 1 -4.2,2.36 8.4,8.4 0 0 1 -4.2,0 5.16,5.16 0 0 1 -3.14,-1.31 7.52,7.52 0 0 1 -1.84,-3.93 32,32 0 0 1 -0.26,-4.72 v -28.59 l 0.52,-23.61 21.25,-1 q 9.69,-0.53 10,7.34 z m -10.25,-18.35 -0.26,-4.2 -11.8,0.53 v 4.46 z m -12,12.32 12.28,-1.32 v -3.67 l -12.32,0.79 z m 5,21.24 -5,-5.77 0.26,9.7 z m 7.34,-7.34 7.09,-7.61 -12.59,1.31 z"
       id="path6"
       style="fill:#231815;fill-opacity:1" />
    <path
       d="m 245.545,545.25 24.39,-0.78 8.66,-16 10.75,2.86 -6.29,13.12 26,-0.26 v 8.65 l -30.42,1.05 -1.63,3.44 30.16,23.34 2.09,1.31 -8.13,10 -29.12,-23.39 -10.75,24.4 h -0.25 l -12,-5.77 -0.26,-0.27 15.74,-31.73 q -5.51,0.27 -9.71,0.79 -2.1,0.26 -8.65,1.31 z"
       id="path7"
       style="fill:#231815;fill-opacity:1" />
    <path
       d="m 314.785,544.47 28.85,-2.63 h 6.29 l 7.61,-12.58 11,2.36 -6.56,10 a 37.79,37.79 0 0 1 6.29,0 10.82,10.82 0 0 1 6.56,2.89 8.07,8.07 0 0 1 1.84,5.5 49.48,49.48 0 0 1 -0.53,6 l -11.28,0.26 v -7.08 l -30.42,1.57 -10,1.05 -0.27,6 -11.16,0.52 z m -1.31,23.08 26.75,-1.05 4.2,-5.25 -16,1.58 0.26,-8.66 23.32,-2.36 3.94,0.79 a 4.7,4.7 0 0 1 3.14,2.62 q 1,2.1 -1.83,5.77 l -4.2,5.24 h 23.08 l -0.26,8.4 h -23.32 l 0.78,12.06 q 0.27,3.4 -5,5.25 a 29.75,29.75 0 0 1 -3.67,0.52 81.68,81.68 0 0 1 -10.75,-0.26 l -2.1,-9.18 h 9.44 l -0.52,-7.87 -27.28,1.84 z m 6.53,-33.31 a 4.92,4.92 0 0 1 3.14,-3.94 6.79,6.79 0 0 1 5.51,0.27 6.37,6.37 0 0 1 1.05,11 4.59,4.59 0 0 1 -4.2,1.05 6,6 0 0 1 -4.19,-2.88 7,7 0 0 1 -1.31,-5.5 z m 16.78,1 q -0.26,-4.2 2.89,-5.77 a 6.25,6.25 0 0 1 6.29,0.26 6.34,6.34 0 0 1 3.41,4.72 5.43,5.43 0 0 1 -1.57,5.25 c -1.93,1.75 -3.94,2.18 -6,1.31 q -4.47,-1.52 -4.99,-5.68 z"
       id="path8"
       style="fill:#231815;fill-opacity:1" />
    <path
       d="m 439.095,553.91 1.58,-5.51 -16,2.1 v -11.54 l 19.67,-1.31 2.88,-7.08 11,2.62 -2.36,4.72 16.78,0.52 v 8.4 l -19.93,0.52 -1.83,6 h 21.5 l 0.53,8.92 -23.61,0.26 a 26,26 0 0 0 -1.57,8.66 q 0,8.91 7.87,8.91 a 13.5,13.5 0 0 0 10,-3.93 q 3.68,-3.67 5.25,-10.75 l 11.54,4.19 q -3.42,8.93 -6.82,12.86 -7.08,8.11 -19.93,8.39 -12.08,0.26 -17.05,-5.77 a 16.75,16.75 0 0 1 -3.41,-8.92 c -0.18,-2.79 0.35,-6.82 1.57,-12.06 l -12.32,2.09 0.52,-11 z"
       id="path9"
       style="fill:#231815;fill-opacity:1" />
    <path
       d="m 520.925,581.45 q 6.56,-4.46 8.65,-8.4 a 22.19,22.19 0 0 0 2.89,-11.8 q 0,-7.34 -3.15,-11.54 a 16.06,16.06 0 0 0 -7.87,-5.77 18.47,18.47 0 0 0 -10.22,-0.26 20.34,20.34 0 0 0 -12.33,9.44 19.5,19.5 0 0 0 -2.89,11.8 11.2,11.2 0 0 0 1.32,4.46 q 1.57,2.63 3.67,1.84 a 16.92,16.92 0 0 0 5.24,-3.41 50.35,50.35 0 0 0 3.94,-3.41 116.32,116.32 0 0 0 10.23,-11.28 l 7.6,6.82 a 123.89,123.89 0 0 1 -10.75,12.85 52,52 0 0 1 -13.38,10 12.43,12.43 0 0 1 -8.13,1.31 9.61,9.61 0 0 1 -6.82,-4.72 q -2.88,-4.45 -3.14,-12.33 a 36.39,36.39 0 0 1 1.57,-12.59 28.54,28.54 0 0 1 10.23,-15 30,30 0 0 1 18.36,-6.29 q 12.58,0 20.45,8.92 a 26.41,26.41 0 0 1 6,12.32 35.47,35.47 0 0 1 0.26,14.16 39.7,39.7 0 0 1 -3.41,10 q -2.31,4.76 -8.62,10.76 z"
       id="path10"
       style="fill:#231815;fill-opacity:1" />
    <path
       d="m 591.475,538.17 2.62,6.56 4.46,-1 a 36.57,36.57 0 0 1 3.67,5.51 q 5.25,11.28 -1.31,21.24 a 34.36,34.36 0 0 1 -9.18,8.92 105.55,105.55 0 0 1 -16.52,9.18 l -6,-11 q 4.71,-2.1 8.39,-3.93 a 28.15,28.15 0 0 0 8.39,-5.51 q 5.76,-5 6.3,-10.23 a 8.31,8.31 0 0 0 -3.15,-7.87 q -3.15,-2.36 -8.66,-1.83 a 56.66,56.66 0 0 0 -13.9,3.67 q -5,2.1 -13.37,6.29 l -6.82,-10 q 9.18,-4.72 13.11,-6.3 a 72.71,72.71 0 0 1 19.15,-5 39.54,39.54 0 0 1 12.82,1.3 z m 5,-7.08 4.44,11.24 -6.56,1.31 -4.19,-10.49 z m 6.82,-2.1 4.2,11.54 -5.25,1.31 -4.72,-11 z"
       id="path11"
       style="fill:#231815;fill-opacity:1" />
    <path
       d="m 660.185,537.91 -37.5,22.29 38.32,23.34 -8.92,7.08 -30.42,-18.62 q -3.15,-1.83 -6.56,-4.19 c -2.62,-1.75 -4.28,-3.58 -5,-5.51 q -1.58,-3.93 2.36,-8.13 a 28.44,28.44 0 0 1 7.34,-5.24 l 32,-18.63 z"
       id="path12"
       style="fill:#231815;fill-opacity:1" />
    <path
       d="m 679.065,534.76 q -2.1,10.23 -2.62,13.38 a 129.25,129.25 0 0 0 -1.05,14.69 l 7.61,-5.5 4.72,10.49 -10.72,7.33 q -6.3,4.2 -10,1.31 -1.85,-1.58 -2.62,-5.77 a 55.29,55.29 0 0 1 -0.53,-8.65 q 0.27,-10 4.46,-28.85 z m 17.05,-2.36 11.54,-1.31 q 1.58,16.53 1.57,24.13 0,12.33 -3.14,34.88 l -11.8,-1 q 2.61,-16.26 3.4,-28.32 0.8,-11.85 -1.57,-28.38 z"
       id="path13"
       style="fill:#231815;fill-opacity:1" />
    <path
       d="m 711.855,553.12 5.5,-0.26 0.27,-10.23 -5.25,0.79 -0.26,-0.26 0.52,-9.18 11.81,-0.27 0.26,-4.72 10.49,-0.26 -0.26,4.46 12.32,-0.26 -0.52,7.86 h -3.41 l -2.32,11.28 h 5.24 v 7.61 h -11 l -23.34,2.1 z m 3.93,10.75 21.24,-0.78 a 6,6 0 0 1 6.3,3.93 c 0.7,1.23 1,3.32 1,6.3 q 0.25,6.28 0,13.9 l -30.32,4.45 z m 18.62,16.79 v -8.39 h -8.65 l -1,8.91 z m -2.88,-28.59 0.48,-10.74 -3.67,0.26 -1,10.49 z m 38.55,4.2 1.57,4.46 3.15,11 a 31.66,31.66 0 0 1 1.05,4.46 8.84,8.84 0 0 1 -0.52,4.2 q -1.32,2.94 -5.25,3.94 a 33.42,33.42 0 0 1 -6.82,0.53 l -4.46,-11 5.51,-0.52 a 49.61,49.61 0 0 0 -2.1,-6 q -1.83,-4.71 -3.93,-8.91 l 6.82,-19.15 -6.82,0.53 -1,23.86 v 28.59 l -11.28,0.52 1,-32 1.31,-28.85 0.26,-0.53 22.56,-1.83 q 4.18,2.1 4.46,5.77 a 23,23 0 0 1 -0.79,7.34 q -1.32,4.65 -4.72,13.59 z"
       id="path14"
       style="fill:#231815;fill-opacity:1" />
  </g>
</svg>
